<svg width="499" height="499" viewBox="0 0 499 499" fill="none" xmlns="http://www.w3.org/2000/svg">
<path d="M70 1H429C467.108 1 498 31.8924 498 70V429C498 467.108 467.108 498 429 498H70C31.8924 498 1 467.108 1 429V70C1 31.8924 31.8924 1 70 1Z" fill="#CCFFCE" stroke="black" stroke-width="2"/>
<rect x="21" y="19" width="456" height="455" rx="50" fill="#0A0183"/>
<path d="M105.934 40.9618H101.134V38.5618H113.134V40.9618H108.334V55.3618H105.934V40.9618ZM116.976 55.3618H114.576V43.3618H124.177V45.7618H116.976V48.1618H124.177V50.5618H116.976V55.3618ZM126.576 48.1618H124.177V45.7618H126.576V48.1618ZM137.619 45.7618H130.419V43.3618H137.619V45.7618ZM130.419 52.9618H128.019V45.7618H130.419V48.1618H137.619V45.7618H140.019V50.5618H130.419V52.9618ZM137.619 55.3618H130.419V52.9618H137.619V55.3618ZM143.861 55.3618H141.461V43.3618H143.861V48.1618H151.061V43.3618H153.461V55.3618H151.061V50.5618H143.861V55.3618ZM157.304 52.9618H154.904V43.3618H157.304V52.9618ZM162.104 50.5618H164.504V43.3618H166.904V55.3618H164.504V52.9618H162.104V50.5618ZM162.104 55.3618H157.304V52.9618H162.104V55.3618ZM170.746 55.3618H168.346V43.3618H177.946V45.7618H170.746V48.1618H177.946V50.5618H170.746V55.3618ZM180.346 48.1618H177.946V45.7618H180.346V48.1618ZM191.388 45.7618H184.188V43.3618H191.388V45.7618ZM184.188 52.9618H181.788V45.7618H184.188V52.9618ZM193.788 52.9618H191.388V45.7618H193.788V52.9618ZM191.388 55.3618H184.188V52.9618H191.388V55.3618ZM202.431 40.9618H197.631V38.5618H202.431V40.9618ZM197.631 52.9618H195.231V40.9618H197.631V45.7618H202.431V48.1618H197.631V52.9618ZM204.831 45.7618H202.431V40.9618H204.831V45.7618ZM204.831 50.5618H202.431V48.1618H204.831V50.5618ZM207.231 52.9618H204.831V50.5618H207.231V52.9618ZM204.831 55.3618H197.631V52.9618H204.831V55.3618ZM211.073 55.3618H208.673V38.5618H211.073V48.1618H213.473V50.5618H211.073V55.3618ZM218.273 45.7618H215.873V43.3618H218.273V45.7618ZM215.873 48.1618H213.473V45.7618H215.873V48.1618ZM215.873 52.9618H213.473V50.5618H215.873V52.9618ZM218.273 55.3618H215.873V52.9618H218.273V55.3618ZM231.715 45.7618H224.515V43.3618H231.715V45.7618ZM224.515 48.1618H231.715V45.7618H234.115V55.3618H224.515V52.9618H231.715V50.5618H224.515V48.1618ZM224.515 52.9618H222.115V50.5618H224.515V52.9618ZM251.4 55.3618H249V38.5618H251.4V48.1618H253.8V50.5618H251.4V55.3618ZM258.6 45.7618H256.2V43.3618H258.6V45.7618ZM256.2 48.1618H253.8V45.7618H256.2V48.1618ZM256.2 52.9618H253.8V50.5618H256.2V52.9618ZM258.6 55.3618H256.2V52.9618H258.6V55.3618ZM272.042 45.7618H264.842V43.3618H272.042V45.7618ZM264.842 52.9618H262.442V45.7618H264.842V52.9618ZM274.442 52.9618H272.042V45.7618H274.442V52.9618ZM272.042 55.3618H264.842V52.9618H272.042V55.3618ZM285.485 45.7618H278.285V43.3618H285.485V45.7618ZM278.285 52.9618H275.885V45.7618H278.285V52.9618ZM287.885 52.9618H285.485V50.5618H287.885V52.9618ZM285.485 55.3618H278.285V52.9618H285.485V55.3618ZM291.727 55.3618H289.327V43.3618H291.727V45.7618H294.127V48.1618H291.727V55.3618ZM296.527 45.7618H298.927V43.3618H301.327V55.3618H298.927V48.1618H296.527V45.7618ZM296.527 50.5618H294.127V48.1618H296.527V50.5618ZM305.169 52.9618H302.769V43.3618H305.169V52.9618ZM309.969 50.5618H312.369V43.3618H314.769V55.3618H312.369V52.9618H309.969V50.5618ZM309.969 55.3618H305.169V52.9618H309.969V55.3618ZM318.612 48.1618H316.212V43.3618H318.612V48.1618ZM318.612 48.1618H325.812V43.3618H328.212V55.3618H325.812V50.5618H318.612V48.1618ZM339.254 45.7618H332.054V43.3618H339.254V45.7618ZM332.054 52.9618H329.654V45.7618H332.054V48.1618H339.254V45.7618H341.654V50.5618H332.054V52.9618ZM339.254 55.3618H332.054V52.9618H339.254V55.3618ZM352.696 45.7618H345.496V43.3618H352.696V45.7618ZM345.496 52.9618H343.096V45.7618H345.496V52.9618ZM355.096 52.9618H352.696V50.5618H355.096V52.9618ZM352.696 55.3618H345.496V52.9618H352.696V55.3618ZM358.939 55.3618H356.539V38.5618H358.939V48.1618H361.339V50.5618H358.939V55.3618ZM366.139 45.7618H363.739V43.3618H366.139V45.7618ZM363.739 48.1618H361.339V45.7618H363.739V48.1618ZM363.739 52.9618H361.339V50.5618H363.739V52.9618ZM366.139 55.3618H363.739V52.9618H366.139V55.3618ZM372.381 52.9618H369.981V43.3618H372.381V52.9618ZM377.181 50.5618H379.581V43.3618H381.981V55.3618H379.581V52.9618H377.181V50.5618ZM377.181 55.3618H372.381V52.9618H377.181V55.3618ZM385.823 45.7618H383.423V43.3618H385.823V45.7618ZM395.423 45.7618H393.023V43.3618H395.423V45.7618ZM388.223 48.1618H385.823V45.7618H388.223V48.1618ZM393.023 48.1618H390.623V45.7618H393.023V48.1618ZM390.623 50.5618H388.223V48.1618H390.623V50.5618ZM388.223 52.9618H385.823V50.5618H388.223V52.9618ZM393.023 52.9618H390.623V50.5618H393.023V52.9618ZM385.823 55.3618H383.423V52.9618H385.823V55.3618ZM395.423 55.3618H393.023V52.9618H395.423V55.3618ZM203.872 80.3618H201.472V68.3618H203.872V70.7618H206.272V73.1618H203.872V80.3618ZM211.072 70.7618H206.272V68.3618H211.072V70.7618ZM213.472 80.3618H211.072V70.7618H213.472V80.3618ZM224.514 70.7618H217.314V68.3618H224.514V70.7618ZM217.314 77.9618H214.914V70.7618H217.314V77.9618ZM226.914 77.9618H224.514V70.7618H226.914V77.9618ZM224.514 80.3618H217.314V77.9618H224.514V80.3618ZM235.556 70.7618H233.156V68.3618H235.556V70.7618ZM233.156 73.1618H230.756V70.7618H233.156V73.1618ZM237.956 73.1618H235.556V70.7618H237.956V73.1618ZM230.756 80.3618H228.356V73.1618H230.756V80.3618ZM240.356 80.3618H237.956V73.1618H240.356V80.3618ZM251.399 70.7618H244.199V68.3618H251.399V70.7618ZM244.199 77.9618H241.799V70.7618H244.199V73.1618H251.399V70.7618H253.799V75.5618H244.199V77.9618ZM251.399 80.3618H244.199V77.9618H251.399V80.3618ZM260.041 70.7618H255.241V68.3618H267.241V70.7618H262.441V80.3618H260.041V70.7618ZM278.283 70.7618H271.083V68.3618H278.283V70.7618ZM271.083 77.9618H268.683V70.7618H271.083V77.9618ZM280.683 77.9618H278.283V70.7618H280.683V77.9618ZM278.283 80.3618H271.083V77.9618H278.283V80.3618ZM289.326 65.9618H284.526V63.5618H289.326V65.9618ZM284.526 77.9618H282.126V65.9618H284.526V70.7618H289.326V73.1618H284.526V77.9618ZM291.726 70.7618H289.326V65.9618H291.726V70.7618ZM291.726 75.5618H289.326V73.1618H291.726V75.5618ZM294.126 77.9618H291.726V75.5618H294.126V77.9618ZM291.726 80.3618H284.526V77.9618H291.726V80.3618Z" fill="#CCFFCE"/>
</svg>
