<svg width="603" height="420" viewBox="0 0 603 420" fill="none" xmlns="http://www.w3.org/2000/svg">
<path d="M2.56689 71.4165C2.56689 32.7566 33.907 1.4165 72.5669 1.4165H530.567C569.227 1.4165 600.567 32.7566 600.567 71.4165V344.417C600.567 383.076 569.227 414.417 530.567 414.417H72.5669C33.907 414.417 2.56689 383.076 2.56689 344.417V71.4165Z" fill="#CCFFCE"/>
<path d="M76.5 417.557C35.0786 417.557 1.5 383.979 1.5 342.557V69.5833C1.5 51.5265 8.67304 34.2092 21.4411 21.4411C34.2092 8.67304 51.5265 1.5 69.5833 1.5H532.55C550.607 1.5 567.924 8.67304 580.692 21.4411C593.46 34.2092 600.633 51.5265 600.633 69.5833V342.557M1.5 342.557C1.5 383.979 35.0786 417.557 76.5 417.557H525.633" stroke="black" stroke-width="3"/>
<g clip-path="url(#clip0_362_64)">
<rect x="27.5669" y="19.4165" width="547" height="376" rx="50" fill="#0A0183"/>
<path d="M8.44849 73.0176C8.44849 34.3576 39.7886 3.01758 78.4485 3.01758H523.685C562.345 3.01758 593.685 34.3576 593.685 73.0176V441.099H8.44849V73.0176Z" fill="#009851" fill-opacity="0.4"/>
<path d="M103.752 38.0165H98.9517V35.6165H110.952V38.0165H106.152V52.4165H103.752V38.0165ZM114.794 52.4165H112.394V40.4165H121.994V42.8165H114.794V45.2165H121.994V47.6165H114.794V52.4165ZM124.394 45.2165H121.994V42.8165H124.394V45.2165ZM135.436 42.8165H128.236V40.4165H135.436V42.8165ZM128.236 50.0165H125.836V42.8165H128.236V45.2165H135.436V42.8165H137.836V47.6165H128.236V50.0165ZM135.436 52.4165H128.236V50.0165H135.436V52.4165ZM141.679 52.4165H139.279V40.4165H141.679V45.2165H148.879V40.4165H151.279V52.4165H148.879V47.6165H141.679V52.4165ZM155.121 50.0165H152.721V40.4165H155.121V50.0165ZM159.921 47.6165H162.321V40.4165H164.721V52.4165H162.321V50.0165H159.921V47.6165ZM159.921 52.4165H155.121V50.0165H159.921V52.4165ZM168.563 52.4165H166.163V40.4165H175.763V42.8165H168.563V45.2165H175.763V47.6165H168.563V52.4165ZM178.163 45.2165H175.763V42.8165H178.163V45.2165ZM189.206 42.8165H182.006V40.4165H189.206V42.8165ZM182.006 50.0165H179.606V42.8165H182.006V50.0165ZM191.606 50.0165H189.206V42.8165H191.606V50.0165ZM189.206 52.4165H182.006V50.0165H189.206V52.4165ZM200.248 38.0165H195.448V35.6165H200.248V38.0165ZM195.448 50.0165H193.048V38.0165H195.448V42.8165H200.248V45.2165H195.448V50.0165ZM202.648 42.8165H200.248V38.0165H202.648V42.8165ZM202.648 47.6165H200.248V45.2165H202.648V47.6165ZM205.048 50.0165H202.648V47.6165H205.048V50.0165ZM202.648 52.4165H195.448V50.0165H202.648V52.4165ZM208.89 52.4165H206.49V35.6165H208.89V45.2165H211.29V47.6165H208.89V52.4165ZM216.09 42.8165H213.69V40.4165H216.09V42.8165ZM213.69 45.2165H211.29V42.8165H213.69V45.2165ZM213.69 50.0165H211.29V47.6165H213.69V50.0165ZM216.09 52.4165H213.69V50.0165H216.09V52.4165ZM229.533 42.8165H222.333V40.4165H229.533V42.8165ZM222.333 45.2165H229.533V42.8165H231.933V52.4165H222.333V50.0165H229.533V47.6165H222.333V45.2165ZM222.333 50.0165H219.933V47.6165H222.333V50.0165ZM249.218 52.4165H246.818V35.6165H249.218V45.2165H251.618V47.6165H249.218V52.4165ZM256.418 42.8165H254.018V40.4165H256.418V42.8165ZM254.018 45.2165H251.618V42.8165H254.018V45.2165ZM254.018 50.0165H251.618V47.6165H254.018V50.0165ZM256.418 52.4165H254.018V50.0165H256.418V52.4165ZM269.86 42.8165H262.66V40.4165H269.86V42.8165ZM262.66 50.0165H260.26V42.8165H262.66V50.0165ZM272.26 50.0165H269.86V42.8165H272.26V50.0165ZM269.86 52.4165H262.66V50.0165H269.86V52.4165ZM283.302 42.8165H276.102V40.4165H283.302V42.8165ZM276.102 50.0165H273.702V42.8165H276.102V50.0165ZM285.702 50.0165H283.302V47.6165H285.702V50.0165ZM283.302 52.4165H276.102V50.0165H283.302V52.4165ZM289.545 52.4165H287.145V40.4165H289.545V42.8165H291.945V45.2165H289.545V52.4165ZM294.345 42.8165H296.745V40.4165H299.145V52.4165H296.745V45.2165H294.345V42.8165ZM294.345 47.6165H291.945V45.2165H294.345V47.6165ZM302.987 50.0165H300.587V40.4165H302.987V50.0165ZM307.787 47.6165H310.187V40.4165H312.587V52.4165H310.187V50.0165H307.787V47.6165ZM307.787 52.4165H302.987V50.0165H307.787V52.4165ZM316.429 45.2165H314.029V40.4165H316.429V45.2165ZM316.429 45.2165H323.629V40.4165H326.029V52.4165H323.629V47.6165H316.429V45.2165ZM337.072 42.8165H329.872V40.4165H337.072V42.8165ZM329.872 50.0165H327.472V42.8165H329.872V45.2165H337.072V42.8165H339.472V47.6165H329.872V50.0165ZM337.072 52.4165H329.872V50.0165H337.072V52.4165ZM350.514 42.8165H343.314V40.4165H350.514V42.8165ZM343.314 50.0165H340.914V42.8165H343.314V50.0165ZM352.914 50.0165H350.514V47.6165H352.914V50.0165ZM350.514 52.4165H343.314V50.0165H350.514V52.4165ZM356.756 52.4165H354.356V35.6165H356.756V45.2165H359.156V47.6165H356.756V52.4165ZM363.956 42.8165H361.556V40.4165H363.956V42.8165ZM361.556 45.2165H359.156V42.8165H361.556V45.2165ZM361.556 50.0165H359.156V47.6165H361.556V50.0165ZM363.956 52.4165H361.556V50.0165H363.956V52.4165ZM370.199 50.0165H367.799V40.4165H370.199V50.0165ZM374.999 47.6165H377.399V40.4165H379.799V52.4165H377.399V50.0165H374.999V47.6165ZM374.999 52.4165H370.199V50.0165H374.999V52.4165ZM383.641 42.8165H381.241V40.4165H383.641V42.8165ZM393.241 42.8165H390.841V40.4165H393.241V42.8165ZM386.041 45.2165H383.641V42.8165H386.041V45.2165ZM390.841 45.2165H388.441V42.8165H390.841V45.2165ZM388.441 47.6165H386.041V45.2165H388.441V47.6165ZM386.041 50.0165H383.641V47.6165H386.041V50.0165ZM390.841 50.0165H388.441V47.6165H390.841V50.0165ZM383.641 52.4165H381.241V50.0165H383.641V52.4165ZM393.241 52.4165H390.841V50.0165H393.241V52.4165ZM410.526 52.4165H408.126V40.4165H410.526V42.8165H412.926V45.2165H410.526V52.4165ZM417.726 42.8165H412.926V40.4165H417.726V42.8165ZM420.126 52.4165H417.726V42.8165H420.126V52.4165ZM431.168 42.8165H423.968V40.4165H431.168V42.8165ZM423.968 50.0165H421.568V42.8165H423.968V50.0165ZM433.568 50.0165H431.168V42.8165H433.568V50.0165ZM431.168 52.4165H423.968V50.0165H431.168V52.4165ZM442.21 42.8165H439.81V40.4165H442.21V42.8165ZM439.81 45.2165H437.41V42.8165H439.81V45.2165ZM444.61 45.2165H442.21V42.8165H444.61V45.2165ZM437.41 52.4165H435.01V45.2165H437.41V52.4165ZM447.01 52.4165H444.61V45.2165H447.01V52.4165ZM458.053 42.8165H450.853V40.4165H458.053V42.8165ZM450.853 50.0165H448.453V42.8165H450.853V45.2165H458.053V42.8165H460.453V47.6165H450.853V50.0165ZM458.053 52.4165H450.853V50.0165H458.053V52.4165ZM466.695 42.8165H461.895V40.4165H473.895V42.8165H469.095V52.4165H466.695V42.8165ZM484.937 42.8165H477.737V40.4165H484.937V42.8165ZM477.737 50.0165H475.337V42.8165H477.737V50.0165ZM487.337 50.0165H484.937V42.8165H487.337V50.0165ZM484.937 52.4165H477.737V50.0165H484.937V52.4165ZM495.98 38.0165H491.18V35.6165H495.98V38.0165ZM491.18 50.0165H488.78V38.0165H491.18V42.8165H495.98V45.2165H491.18V50.0165ZM498.38 42.8165H495.98V38.0165H498.38V42.8165ZM498.38 47.6165H495.98V45.2165H498.38V47.6165ZM500.78 50.0165H498.38V47.6165H500.78V50.0165ZM498.38 52.4165H491.18V50.0165H498.38V52.4165Z" fill="#CCFFCE"/>
</g>
<defs>
<clipPath id="clip0_362_64">
<rect x="27.5669" y="19.4165" width="547" height="376" rx="50" fill="white"/>
</clipPath>
</defs>
</svg>
